<?xml version="1.0" standalone="no"?>
<!DOCTYPE svg PUBLIC "-//W3C//DTD SVG 20010904//EN"
 "http://www.w3.org/TR/2001/REC-SVG-20010904/DTD/svg10.dtd">
<svg version="1.0" xmlns="http://www.w3.org/2000/svg"
 width="700.000000pt" height="700.000000pt" viewBox="0 0 700.000000 700.000000"
 preserveAspectRatio="xMidYMid meet">
<metadata>
Created by potrace 1.14, written by Peter Selinger 2001-2017
</metadata>
<g transform="translate(0.000000,700.000000) scale(0.100000,-0.100000)"
fill="#000000" stroke="none">
<path d="M3715 6170 c-38 -17 -64 -47 -341 -395 -154 -192 -287 -359 -296
-370 -9 -11 -132 -164 -272 -340 -141 -176 -262 -327 -269 -335 -123 -153
-818 -1020 -832 -1039 -35 -46 -186 -235 -209 -261 -77 -89 -249 -314 -261
-344 -28 -67 9 -150 80 -180 17 -7 66 -50 110 -96 112 -115 197 -197 285 -272
136 -117 51 -105 723 -104 323 1 587 1 587 1 0 0 -9 -34 -21 -75 -11 -41 -22
-82 -24 -90 -4 -16 -46 -180 -185 -712 -73 -279 -87 -344 -80 -374 10 -41 43
-81 82 -98 15 -7 51 -34 81 -61 29 -28 80 -72 112 -100 33 -27 65 -55 72 -61
6 -6 34 -25 61 -43 65 -42 122 -49 183 -23 45 19 198 206 1034 1256 135 169
333 418 359 450 17 21 163 204 324 405 161 201 298 373 305 381 123 152 447
562 461 584 26 41 29 112 6 157 -22 43 -119 108 -298 201 -64 34 -126 69 -137
79 -52 46 -51 46 -742 44 -359 -1 -653 0 -653 2 0 2 17 70 39 151 21 81 57
219 80 307 22 88 50 194 61 235 48 175 153 581 169 650 34 145 14 181 -158
283 -129 77 -246 137 -268 137 -7 0 -13 4 -13 9 0 14 -83 51 -111 50 -13 0
-33 -4 -44 -9z m335 -213 c209 -120 211 -121 192 -215 -10 -50 -53 -219 -107
-417 -9 -33 -18 -68 -20 -78 -5 -20 -11 -46 -109 -422 -42 -159 -80 -306 -85
-325 -6 -19 -17 -61 -26 -92 l-16 -58 -203 0 -204 0 12 53 c7 28 46 176 86
327 39 151 74 282 76 290 4 19 85 326 125 480 17 63 32 122 34 130 2 8 24 94
50 190 26 96 47 183 48 192 2 25 21 17 147 -55z m1465 -1820 c50 -27 118 -68
152 -91 60 -39 63 -43 63 -81 0 -50 0 -50 -195 -290 -18 -22 -250 -312 -515
-645 -465 -583 -555 -696 -585 -732 -44 -53 -1084 -1358 -1100 -1380 -42 -56
-96 -73 -151 -48 -35 16 -239 178 -256 204 -4 6 5 24 20 41 23 24 115 138 155
190 4 5 17 22 30 36 12 14 31 38 42 53 11 15 28 37 38 49 10 12 26 31 35 42 9
11 30 38 47 60 16 22 37 49 47 60 9 11 310 387 668 835 358 448 659 824 668
835 9 11 96 119 192 240 96 121 177 222 180 225 4 3 13 14 21 26 8 11 31 41
51 65 119 144 258 326 258 340 0 37 9 35 135 -34z m-2379 -1240 c2 -2 -32
-139 -87 -344 l-12 -43 -587 0 -587 0 -29 22 c-90 69 -384 344 -384 359 0 4
354 7 787 8 433 1 788 3 790 4 3 3 106 -3 109 -6z"/>
</g>
</svg>
